<svg width="156" height="58" viewBox="0 0 156 58" fill="none" xmlns="http://www.w3.org/2000/svg">
<g clip-path="url(#clip0_82_1186)" filter="url(#filter0_d_82_1186)">
<path d="M10.0271 0H145.727C149.037 0 151.727 2.69 151.727 6V44C151.727 47.31 149.037 50 145.727 50H10.0271C6.7171 50 4.0271 47.31 4.0271 44V6C4.0271 2.69 6.7171 0 10.0271 0Z" fill="#222222"/>
<path d="M36.357 23.8601C36.327 20.2801 39.287 18.5401 39.417 18.4601C37.737 16.0201 35.137 15.6801 34.227 15.6501C32.047 15.4201 29.927 16.9601 28.817 16.9601C27.687 16.9601 25.967 15.6801 24.127 15.7101C21.757 15.7501 19.527 17.1201 18.317 19.2601C15.807 23.6101 17.677 30.0101 20.087 33.5301C21.297 35.2501 22.697 37.1801 24.547 37.1101C26.347 37.0401 27.027 35.9601 29.197 35.9601C31.357 35.9601 31.987 37.1101 33.867 37.0701C35.807 37.0401 37.017 35.3401 38.187 33.6001C39.577 31.6301 40.137 29.6801 40.157 29.5801C40.107 29.5601 36.397 28.1401 36.357 23.8601Z" fill="white"/>
<path d="M32.8071 13.34C33.7771 12.13 34.4371 10.48 34.2571 8.80005C32.8571 8.86005 31.0971 9.77005 30.0871 10.96C29.1971 12.01 28.3971 13.72 28.5971 15.33C30.1771 15.45 31.7971 14.53 32.8071 13.34Z" fill="white"/>
<path d="M62.4771 36.8598H59.9571L58.5771 32.5198H53.7771L52.4671 36.8598H50.0171L54.7671 22.0898H57.7071L62.4771 36.8598ZM58.1671 30.6998L56.9171 26.8498C56.7871 26.4498 56.5371 25.5298 56.1771 24.0698H56.1271C55.9771 24.6998 55.7471 25.6298 55.4271 26.8498L54.1971 30.6998H58.1671Z" fill="white"/>
<path d="M74.687 31.41C74.687 33.22 74.197 34.65 73.207 35.7C72.327 36.64 71.227 37.1 69.927 37.1C68.517 37.1 67.507 36.6 66.887 35.59V41.18H64.517V29.71C64.517 28.57 64.487 27.41 64.427 26.21H66.507L66.637 27.9H66.677C67.467 26.63 68.667 25.99 70.267 25.99C71.527 25.99 72.567 26.49 73.407 27.48C74.267 28.48 74.687 29.78 74.687 31.41ZM72.277 31.49C72.277 30.45 72.047 29.6 71.577 28.93C71.067 28.23 70.377 27.88 69.517 27.88C68.937 27.88 68.407 28.08 67.927 28.46C67.457 28.85 67.137 29.35 66.997 29.98C66.927 30.27 66.887 30.51 66.887 30.7V32.48C66.887 33.25 67.127 33.91 67.597 34.44C68.067 34.97 68.687 35.24 69.447 35.24C70.337 35.24 71.027 34.89 71.527 34.21C72.027 33.52 72.277 32.62 72.277 31.49Z" fill="white"/>
<path d="M86.927 31.41C86.927 33.22 86.437 34.65 85.447 35.7C84.567 36.64 83.467 37.1 82.167 37.1C80.757 37.1 79.747 36.6 79.127 35.59V41.18H76.757V29.71C76.757 28.57 76.727 27.41 76.667 26.21H78.747L78.877 27.9H78.917C79.707 26.63 80.907 25.99 82.507 25.99C83.767 25.99 84.807 26.49 85.647 27.48C86.507 28.48 86.927 29.78 86.927 31.41ZM84.517 31.49C84.517 30.45 84.287 29.6 83.817 28.93C83.307 28.23 82.617 27.88 81.757 27.88C81.177 27.88 80.647 28.08 80.167 28.46C79.697 28.85 79.387 29.35 79.237 29.98C79.167 30.27 79.127 30.51 79.127 30.7V32.48C79.127 33.25 79.367 33.91 79.837 34.44C80.307 34.97 80.927 35.24 81.687 35.24C82.577 35.24 83.277 34.89 83.767 34.21C84.277 33.52 84.517 32.62 84.517 31.49Z" fill="white"/>
<path d="M100.627 32.7199C100.627 33.9799 100.187 34.9999 99.3171 35.7899C98.3571 36.6499 97.0171 37.0799 95.2971 37.0799C93.7071 37.0799 92.4371 36.7699 91.4771 36.1599L92.0271 34.1899C93.0671 34.7999 94.2071 35.1099 95.4471 35.1099C96.3371 35.1099 97.0371 34.9099 97.5271 34.5099C98.0271 34.1099 98.2771 33.5699 98.2771 32.8999C98.2771 32.2999 98.0671 31.7999 97.6671 31.3899C97.2571 30.9799 96.5771 30.5999 95.6271 30.2499C93.0171 29.2799 91.7271 27.8699 91.7271 26.0199C91.7271 24.8099 92.1871 23.8199 93.0971 23.0399C94.0071 22.2699 95.2171 21.8799 96.7271 21.8799C98.0671 21.8799 99.1871 22.1099 100.077 22.5799L99.4771 24.4999C98.6371 24.0499 97.6971 23.8199 96.6371 23.8199C95.8071 23.8199 95.1471 24.0299 94.6771 24.4299C94.2871 24.7999 94.0871 25.2399 94.0871 25.7699C94.0871 26.3499 94.3171 26.8399 94.7671 27.2099C95.1571 27.5599 95.8771 27.9399 96.9171 28.3499C98.1871 28.8599 99.1171 29.4599 99.7171 30.1499C100.327 30.8399 100.627 31.6999 100.627 32.7199Z" fill="white"/>
<path d="M108.467 27.9898H105.857V33.1598C105.857 34.4698 106.317 35.1298 107.237 35.1298C107.657 35.1298 108.007 35.0898 108.287 35.0198L108.357 36.8198C107.887 36.9898 107.277 37.0798 106.517 37.0798C105.577 37.0798 104.857 36.7898 104.327 36.2198C103.797 35.6498 103.537 34.6898 103.537 33.3498V27.9798H101.987V26.2098H103.537V24.2598L105.857 23.5598V26.2098H108.467V27.9898Z" fill="white"/>
<path d="M120.207 31.45C120.207 33.09 119.737 34.43 118.807 35.48C117.827 36.56 116.527 37.1 114.907 37.1C113.347 37.1 112.097 36.58 111.167 35.55C110.237 34.52 109.777 33.21 109.777 31.63C109.777 29.98 110.257 28.63 111.207 27.58C112.167 26.53 113.457 26 115.077 26C116.637 26 117.897 26.52 118.847 27.56C119.757 28.56 120.207 29.86 120.207 31.45ZM117.757 31.5C117.757 30.52 117.547 29.69 117.127 28.99C116.627 28.14 115.917 27.72 114.997 27.72C114.047 27.72 113.317 28.14 112.827 28.99C112.397 29.69 112.197 30.54 112.197 31.55C112.197 32.53 112.407 33.37 112.827 34.06C113.337 34.91 114.057 35.33 114.977 35.33C115.877 35.33 116.587 34.9 117.107 34.04C117.537 33.32 117.757 32.48 117.757 31.5Z" fill="white"/>
<path d="M127.907 28.29C127.677 28.25 127.427 28.23 127.157 28.23C126.327 28.23 125.677 28.54 125.227 29.17C124.837 29.72 124.637 30.43 124.637 31.27V36.86H122.267V29.56C122.267 28.33 122.247 27.21 122.197 26.21H124.257L124.347 28.25H124.417C124.667 27.55 125.057 26.98 125.597 26.56C126.127 26.18 126.697 25.99 127.307 25.99C127.527 25.99 127.727 26.01 127.897 26.03L127.907 28.29Z" fill="white"/>
<path d="M138.487 31.03C138.487 31.45 138.457 31.81 138.397 32.1H131.297C131.327 33.15 131.667 33.96 132.327 34.51C132.927 35 133.697 35.25 134.647 35.25C135.697 35.25 136.657 35.08 137.517 34.75L137.887 36.39C136.877 36.83 135.687 37.05 134.317 37.05C132.667 37.05 131.367 36.56 130.427 35.59C129.487 34.62 129.017 33.31 129.017 31.68C129.017 30.08 129.457 28.74 130.337 27.67C131.257 26.53 132.497 25.96 134.057 25.96C135.587 25.96 136.757 26.53 137.537 27.67C138.167 28.59 138.487 29.7 138.487 31.03ZM136.227 30.42C136.247 29.72 136.087 29.11 135.767 28.6C135.357 27.94 134.727 27.61 133.887 27.61C133.117 27.61 132.487 27.93 132.007 28.57C131.617 29.08 131.377 29.7 131.307 30.41L136.227 30.42Z" fill="white"/>
<path d="M57.0272 16.8098H55.7872L55.1072 14.6798H52.7472L52.0972 16.8098H50.8972L53.2272 9.5498H54.6672L57.0272 16.8098ZM54.8972 13.7798L54.2872 11.8798C54.2272 11.6898 54.1072 11.2298 53.9172 10.5098H53.8972C53.8172 10.8198 53.7172 11.2698 53.5472 11.8798L52.9472 13.7798H54.8972Z" fill="white"/>
<path d="M62.8672 11.5698L60.8872 16.8098H59.7572L57.8372 11.5698H59.0872L59.9772 14.3398C60.1272 14.7998 60.2572 15.2398 60.3572 15.6598H60.3872C60.4772 15.2798 60.6072 14.8398 60.7672 14.3398L61.6472 11.5698H62.8672Z" fill="white"/>
<path d="M67.0872 16.81L66.9972 16.21H66.9672C66.6072 16.69 66.0972 16.93 65.4372 16.93C64.4972 16.93 63.8372 16.27 63.8372 15.39C63.8372 14.1 64.9572 13.43 66.8972 13.43V13.33C66.8972 12.64 66.5272 12.3 65.8072 12.3C65.2872 12.3 64.8372 12.43 64.4372 12.69L64.1972 11.93C64.6772 11.63 65.2872 11.48 65.9972 11.48C67.3672 11.48 68.0572 12.2 68.0572 13.65V15.58C68.0572 16.11 68.0772 16.52 68.1372 16.83L67.0872 16.81ZM66.9272 14.2C65.6372 14.2 64.9872 14.51 64.9872 15.26C64.9872 15.81 65.3172 16.08 65.7872 16.08C66.3772 16.08 66.9272 15.63 66.9272 15.01V14.2Z" fill="white"/>
<path d="M70.6473 10.7098C70.2573 10.7098 69.9573 10.4098 69.9573 10.0098C69.9573 9.60982 70.2673 9.31982 70.6673 9.31982C71.0673 9.31982 71.3873 9.60982 71.3773 10.0098C71.3773 10.4298 71.0773 10.7098 70.6473 10.7098ZM70.0873 11.5698H71.2473V16.7998H70.0873V11.5698Z" fill="white"/>
<path d="M73.3171 9.16992H74.4771V16.7999H73.3171V9.16992Z" fill="white"/>
<path d="M79.4172 16.81L79.3272 16.21H79.2972C78.9372 16.69 78.4272 16.93 77.7672 16.93C76.8272 16.93 76.1672 16.27 76.1672 15.39C76.1672 14.1 77.2872 13.43 79.2272 13.43V13.33C79.2272 12.64 78.8572 12.3 78.1372 12.3C77.6172 12.3 77.1672 12.43 76.7672 12.69L76.5272 11.92C77.0072 11.62 77.6172 11.47 78.3272 11.47C79.6972 11.47 80.3872 12.19 80.3872 13.64V15.57C80.3872 16.1 80.4072 16.51 80.4572 16.82H79.4172V16.81ZM79.2572 14.2C77.9672 14.2 77.3172 14.51 77.3172 15.26C77.3172 15.81 77.6472 16.08 78.1172 16.08C78.7072 16.08 79.2572 15.63 79.2572 15.01V14.2Z" fill="white"/>
<path d="M85.1072 16.9299C84.3672 16.9299 83.8172 16.6199 83.4572 15.9999H83.4372L83.3672 16.8099H82.3772C82.4072 16.3899 82.4172 15.9199 82.4172 15.3999V9.16992H83.5872V12.3399H83.6072C83.9572 11.7599 84.5072 11.4699 85.2772 11.4699C86.5372 11.4699 87.4172 12.5499 87.4172 14.1199C87.4172 15.7399 86.4372 16.9299 85.1072 16.9299ZM84.8672 12.3799C84.1972 12.3799 83.5872 12.9599 83.5872 13.7699V14.6899C83.5872 15.4099 84.1372 15.9999 84.8472 15.9999C85.7172 15.9999 86.2372 15.2899 86.2372 14.1599C86.2372 13.0999 85.6972 12.3799 84.8672 12.3799Z" fill="white"/>
<path d="M89.1372 9.16992H90.2972V16.7999H89.1372V9.16992Z" fill="white"/>
<path d="M96.6273 14.47H93.1373C93.1573 15.46 93.8173 16.02 94.7873 16.02C95.3073 16.02 95.7773 15.93 96.1973 15.77L96.3773 16.58C95.8873 16.8 95.3073 16.9 94.6273 16.9C92.9873 16.9 92.0173 15.87 92.0173 14.26C92.0173 12.66 93.0073 11.45 94.4973 11.45C95.8273 11.45 96.6773 12.44 96.6773 13.94C96.6773 14.15 96.6673 14.33 96.6273 14.47ZM95.5673 13.64C95.5673 12.83 95.1573 12.26 94.4173 12.26C93.7473 12.26 93.2273 12.84 93.1473 13.64H95.5673Z" fill="white"/>
<path d="M103.677 16.93C102.147 16.93 101.157 15.79 101.157 14.24C101.157 12.62 102.167 11.47 103.767 11.47C105.277 11.47 106.287 12.56 106.287 14.15C106.287 15.78 105.247 16.93 103.677 16.93ZM103.727 12.32C102.887 12.32 102.347 13.11 102.347 14.2C102.347 15.28 102.897 16.06 103.717 16.06C104.537 16.06 105.087 15.22 105.087 14.17C105.077 13.11 104.547 12.32 103.727 12.32Z" fill="white"/>
<path d="M112.537 16.81H111.377V13.8C111.377 12.87 111.017 12.41 110.317 12.41C109.627 12.41 109.157 13 109.157 13.69V16.8H107.997V13.07C107.997 12.61 107.987 12.11 107.957 11.57H108.977L109.027 12.38H109.057C109.367 11.82 110.007 11.46 110.717 11.46C111.817 11.46 112.537 12.3 112.537 13.67V16.81Z" fill="white"/>
<path d="M120.147 12.45H118.867V14.99C118.867 15.64 119.097 15.96 119.547 15.96C119.747 15.96 119.927 15.94 120.067 15.91L120.097 16.79C119.867 16.88 119.567 16.92 119.197 16.92C118.277 16.92 117.737 16.41 117.737 15.09V12.45H116.977V11.58H117.737V10.62L118.877 10.27V11.57H120.157V12.45" fill="white"/>
<path d="M126.307 16.8099H125.147V13.8199C125.147 12.8799 124.787 12.4099 124.087 12.4099C123.487 12.4099 122.927 12.8199 122.927 13.6499V16.7999H121.767V9.16992H122.927V12.3099H122.947C123.317 11.7399 123.837 11.4599 124.517 11.4599C125.627 11.4599 126.307 12.3199 126.307 13.6899V16.8099Z" fill="white"/>
<path d="M132.247 14.47H128.757C128.777 15.46 129.437 16.02 130.407 16.02C130.927 16.02 131.397 15.93 131.817 15.77L131.997 16.58C131.507 16.8 130.927 16.9 130.247 16.9C128.607 16.9 127.637 15.87 127.637 14.26C127.637 12.66 128.627 11.45 130.117 11.45C131.447 11.45 132.297 12.44 132.297 13.94C132.297 14.15 132.287 14.33 132.247 14.47ZM131.187 13.64C131.187 12.83 130.777 12.26 130.037 12.26C129.367 12.26 128.837 12.84 128.767 13.64H131.187Z" fill="white"/>
</g>
<defs>
<filter id="filter0_d_82_1186" x="0" y="0" width="155.754" height="58" filterUnits="userSpaceOnUse" color-interpolation-filters="sRGB">
<feFlood flood-opacity="0" result="BackgroundImageFix"/>
<feColorMatrix in="SourceAlpha" type="matrix" values="0 0 0 0 0 0 0 0 0 0 0 0 0 0 0 0 0 0 127 0" result="hardAlpha"/>
<feOffset dy="4"/>
<feGaussianBlur stdDeviation="2"/>
<feComposite in2="hardAlpha" operator="out"/>
<feColorMatrix type="matrix" values="0 0 0 0 0 0 0 0 0 0 0 0 0 0 0 0 0 0 0.25 0"/>
<feBlend mode="normal" in2="BackgroundImageFix" result="effect1_dropShadow_82_1186"/>
<feBlend mode="normal" in="SourceGraphic" in2="effect1_dropShadow_82_1186" result="shape"/>
</filter>
<clipPath id="clip0_82_1186">
<rect width="147.754" height="50" fill="white" transform="translate(4)"/>
</clipPath>
</defs>
</svg>
