<?xml version="1.0" encoding="utf-8"?>
<!-- Generator: Adobe Illustrator 25.0.1, SVG Export Plug-In . SVG Version: 6.00 Build 0)  -->
<svg version="1.0" id="Layer_1" xmlns="http://www.w3.org/2000/svg" xmlns:xlink="http://www.w3.org/1999/xlink" x="0px" y="0px"
	 viewBox="0 0 213.7 146.2" style="enable-background:new 0 0 213.7 146.2;" xml:space="preserve">
<style type="text/css">
	.st0{fill:#E6172B;}
	.st1{fill:none;}
</style>
<path class="st0" d="M44.1,60.2c0,2-1.6,3.7-3.6,3.7c0,0,0,0,0,0H24.6c-3.1,0-6,1.8-7.3,4.6c-0.6-1.2-0.9-2.4-0.9-3.7
	c0.1-4.6,3.8-8.3,8.4-8.3h15.7C42.5,56.5,44.1,58.2,44.1,60.2z"/>
<path class="st0" d="M44.1,70.8c0,2-1.6,3.7-3.6,3.7c0,0,0,0,0,0H24.6c-3.1,0-5.9,1.8-7.3,4.6c-0.6-1.2-0.9-2.4-0.9-3.7
	c0.1-4.6,3.8-8.3,8.4-8.3h15.7C42.5,67.1,44.1,68.8,44.1,70.8z"/>
<path class="st0" d="M44.1,81.3c0,2-1.6,3.7-3.6,3.8c0,0,0,0-0.1,0H24.6c-3.1,0-6,1.8-7.3,4.6c-2-4.1-0.3-9.1,3.9-11.2
	c1.2-0.6,2.4-0.8,3.7-0.8h15.7C42.4,77.7,44.1,79.3,44.1,81.3z"/>
<path class="st0" d="M70.3,70.4c1.9,1,3,3,2.9,5.1c0,1.8-0.7,3.5-2,4.7c-1.3,1.2-3,1.9-4.8,1.8h-9.2V59.7h8.6c1.7,0,3.4,0.6,4.8,1.8
	c1.3,1.1,2,2.8,1.9,4.5C72.4,67.7,71.6,69.3,70.3,70.4z M65.7,63.8h-4.3v4.9h4.3c0.6,0,1.2-0.2,1.7-0.7c0.5-0.5,0.7-1.1,0.7-1.8
	c0.1-1.3-0.9-2.4-2.2-2.4C65.8,63.8,65.7,63.8,65.7,63.8z M66.3,77.9c0.7,0,1.3-0.3,1.8-0.7c0.5-0.5,0.7-1.2,0.7-1.9
	c0-0.7-0.2-1.4-0.7-1.8c-0.5-0.5-1.1-0.8-1.8-0.7h-5v5.2L66.3,77.9L66.3,77.9z"/>
<path class="st0" d="M89,80c-1.5,1.6-3.7,2.5-5.9,2.4c-2.2,0-4.3-0.8-5.8-2.4c-3.2-3.3-3.2-8.6,0-11.9c1.5-1.6,3.6-2.5,5.8-2.4
	c4.6,0.1,8.4,3.9,8.3,8.6C91.4,76.4,90.5,78.4,89,80z M80.2,77.2c0.8,0.8,1.9,1.3,3,1.2c1.1,0,2.2-0.4,3-1.2c0.8-0.8,1.2-2,1.2-3.2
	c0-1.2-0.4-2.3-1.2-3.2c-0.8-0.8-1.9-1.3-3-1.2c-1.1,0-2.2,0.4-3,1.2C78.5,72.7,78.5,75.4,80.2,77.2z"/>
<path class="st0" d="M107.4,80c-3.2,3.2-8.5,3.2-11.7,0c-3.2-3.3-3.2-8.6,0-11.9c1.5-1.6,3.6-2.5,5.8-2.4c4.6,0.1,8.4,3.9,8.3,8.6
	C109.8,76.4,108.9,78.4,107.4,80z M98.5,77.2c0.8,0.8,1.9,1.3,3,1.2c1.1,0,2.2-0.4,3-1.2c0.8-0.8,1.2-2,1.2-3.2
	c0-1.2-0.4-2.3-1.2-3.2c-0.8-0.8-1.9-1.3-3-1.2c-1.1,0-2.2,0.4-3,1.2c-0.8,0.8-1.2,2-1.2,3.2C97.3,75.2,97.7,76.3,98.5,77.2z"/>
<path class="st0" d="M126.3,82h-4.7l-5.7-7.2V82h-4V59.7h4v13.4l5.4-7h4.8l-6.3,7.8L126.3,82z"/>
<path class="st0" d="M145,65.6c1.6-0.1,3.2,0.6,4.3,1.8c1.1,1.3,1.7,3,1.6,4.8V82h-4v-9.5c0-0.8-0.2-1.6-0.7-2.2
	c-0.5-0.5-1.2-0.8-1.9-0.8c-0.8,0-1.6,0.3-2.1,0.9c-0.6,0.8-0.8,1.7-0.8,2.7v8.9h-4v-9.4c0-0.8-0.2-1.6-0.7-2.2
	c-0.5-0.5-1.2-0.8-1.9-0.8c-0.8,0-1.6,0.3-2.1,0.9c-0.6,0.8-0.8,1.7-0.8,2.7v8.9h-4V66.1h4v1.7c0.9-1.4,2.6-2.3,4.3-2.1
	c1.7-0.1,3.4,0.8,4.2,2.3C141.5,66.4,143.2,65.5,145,65.6z"/>
<path class="st0" d="M165.4,66.1h4V82h-4v-1.9c-1.2,1.6-3.1,2.4-5.1,2.3c-2.1,0-4-0.9-5.4-2.4c-3-3.4-3-8.5,0-11.9
	c1.3-1.6,3.3-2.4,5.4-2.4c2-0.1,3.9,0.8,5.1,2.3V66.1z M158,77.3c1.7,1.7,4.5,1.7,6.2,0c0.8-0.9,1.3-2,1.2-3.2
	c0-1.2-0.4-2.4-1.2-3.2c-1.7-1.7-4.5-1.7-6.2,0C156.4,72.7,156.4,75.4,158,77.3z"/>
<path class="st0" d="M176.2,68.8c0.3-1,1-1.8,1.9-2.3c0.9-0.5,1.9-0.8,2.9-0.8v4.6c-1.2-0.2-2.3,0.1-3.3,0.8c-1,0.8-1.6,2-1.4,3.3
	V82h-4V66.1h4V68.8z"/>
<path class="st0" d="M197.4,82h-4.7l-5.7-7.2V82h-4V59.7h4v13.4l5.4-7h4.8l-6.3,7.8L197.4,82z"/>
<rect x="9.4" y="51.6" class="st1" width="195" height="43"/>
</svg>
