<svg width="43" height="42" viewBox="0 0 43 42" fill="none" xmlns="http://www.w3.org/2000/svg">
<g clip-path="url(#clip0_82_1164)">
<path d="M21.7949 42C33.3929 42 42.7949 32.598 42.7949 21C42.7949 9.40202 33.3929 0 21.7949 0C10.1969 0 0.794922 9.40202 0.794922 21C0.794922 32.598 10.1969 42 21.7949 42Z" fill="#3C5A9A"/>
<path d="M28.6233 6.4458H23.9713C21.2106 6.4458 18.14 7.6069 18.14 11.6086C18.1535 13.0029 18.14 14.3383 18.14 15.8412H14.9463V20.9233H18.2388V35.5539H24.289V20.8268H28.2824L28.6437 15.8269H24.1848C24.1848 15.8269 24.1948 13.6028 24.1848 12.9569C24.1848 11.3755 25.8303 11.466 25.9293 11.466C26.7123 11.466 28.2348 11.4683 28.6256 11.466V6.4458H28.6233Z" fill="white"/>
</g>
<defs>
<clipPath id="clip0_82_1164">
<rect width="42" height="42" fill="white" transform="translate(0.794922)"/>
</clipPath>
</defs>
</svg>
