<svg width="76" height="40" viewBox="0 0 76 40" fill="none" xmlns="http://www.w3.org/2000/svg">
<rect x="0.5" y="0.5" width="75" height="39" rx="19.5" fill="#F6FBF4"/>
<path fill-rule="evenodd" clip-rule="evenodd" d="M16 13C16 12.4477 16.4477 12 17 12L31 12C31.5523 12 32 12.4477 32 13C32 13.5523 31.5523 14 31 14L17 14C16.4477 14 16 13.5523 16 13Z" fill="#4B8673"/>
<path fill-rule="evenodd" clip-rule="evenodd" d="M16 20C16 19.4477 16.4477 19 17 19L31 19C31.5523 19 32 19.4477 32 20C32 20.5523 31.5523 21 31 21L17 21C16.4477 21 16 20.5523 16 20Z" fill="#4B8673"/>
<path fill-rule="evenodd" clip-rule="evenodd" d="M16 27C16 26.4477 16.4477 26 17 26L31 26C31.5523 26 32 26.4477 32 27C32 27.5523 31.5523 28 31 28L17 28C16.4477 28 16 27.5523 16 27Z" fill="#4B8673"/>
<path fill-rule="evenodd" clip-rule="evenodd" d="M52 10C49.2386 10 47 12.2386 47 15C47 17.7614 49.2386 20 52 20C54.7614 20 57 17.7614 57 15C57 12.2386 54.7614 10 52 10ZM49 15C49 13.3431 50.3431 12 52 12C53.6569 12 55 13.3431 55 15C55 16.6569 53.6569 18 52 18C50.3431 18 49 16.6569 49 15Z" fill="#4B8673"/>
<path fill-rule="evenodd" clip-rule="evenodd" d="M52 21.5C47.5502 21.5 45.0769 23.0054 43.9331 24.0093C43.2272 24.6288 43 25.4996 43 26.2447C43 28.3187 44.6813 30 46.7553 30H57.2447C59.3187 30 61 28.3187 61 26.2447C61 25.4996 60.7728 24.6288 60.0669 24.0093C58.9231 23.0054 56.4498 21.5 52 21.5ZM45.2524 25.5124C46.0393 24.8217 48.0463 23.5 52 23.5C55.9537 23.5 57.9607 24.8217 58.7476 25.5124C58.8856 25.6335 59 25.8668 59 26.2447C59 27.2141 58.2141 28 57.2447 28H46.7553C45.7859 28 45 27.2141 45 26.2447C45 25.8668 45.1144 25.6335 45.2524 25.5124Z" fill="#4B8673"/>
<rect x="0.5" y="0.5" width="75" height="39" rx="19.5" stroke="#A4A4A4"/>
</svg>
