<svg width="43" height="42" viewBox="0 0 43 42" fill="none" xmlns="http://www.w3.org/2000/svg">
<g clip-path="url(#clip0_82_1167)">
<path d="M14.7968 21C14.7968 17.1342 17.9298 13.9994 21.7957 13.9994C25.6615 13.9994 28.7962 17.1342 28.7962 21C28.7962 24.8658 25.6615 28.0006 21.7957 28.0006C17.9298 28.0006 14.7968 24.8658 14.7968 21ZM11.0124 21C11.0124 26.9556 15.8401 31.7832 21.7957 31.7832C27.7513 31.7832 32.5789 26.9556 32.5789 21C32.5789 15.0444 27.7513 10.2168 21.7957 10.2168C15.8401 10.2168 11.0124 15.0444 11.0124 21ZM30.4858 9.78919C30.4856 10.2876 30.6332 10.7749 30.9099 11.1894C31.1867 11.6039 31.5801 11.9271 32.0405 12.118C32.5009 12.3089 33.0076 12.359 33.4964 12.262C33.9853 12.1649 34.4344 11.9251 34.787 11.5728C35.1396 11.2205 35.3797 10.7716 35.4772 10.2828C35.5746 9.79402 35.5249 9.28731 35.3344 8.82677C35.1438 8.36622 34.821 7.97252 34.4067 7.69546C33.9924 7.41839 33.5052 7.2704 33.0068 7.2702H33.0058C32.3377 7.27051 31.6971 7.53597 31.2246 8.00828C30.7521 8.48059 30.4864 9.12112 30.4858 9.78919ZM13.3117 38.0935C11.2642 38.0003 10.1514 37.6592 9.41187 37.3711C8.43142 36.9894 7.73187 36.5348 6.99637 35.8003C6.26086 35.0658 5.80558 34.3669 5.42557 33.3865C5.13728 32.6473 4.79624 31.5341 4.70317 29.4867C4.60136 27.2731 4.58103 26.6082 4.58103 21.0002C4.58103 15.3922 4.60304 14.7291 4.70317 12.5136C4.79641 10.4662 5.13997 9.35525 5.42557 8.61386C5.80726 7.63342 6.26187 6.93386 6.99637 6.19836C7.73086 5.46286 8.42974 5.00758 9.41187 4.62756C10.1511 4.33927 11.2642 3.99823 13.3117 3.90516C15.5252 3.80335 16.1902 3.78302 21.7957 3.78302C27.4011 3.78302 28.0668 3.80503 30.2822 3.90516C32.3296 3.9984 33.4406 4.34196 34.182 4.62756C35.1624 5.00758 35.862 5.46386 36.5975 6.19836C37.333 6.93286 37.7866 7.63342 38.1683 8.61386C38.4566 9.35306 38.7976 10.4662 38.8907 12.5136C38.9925 14.7291 39.0128 15.3922 39.0128 21.0002C39.0128 26.6082 38.9925 27.2713 38.8907 29.4867C38.7974 31.5341 38.4547 32.6469 38.1683 33.3865C37.7866 34.3669 37.332 35.0665 36.5975 35.8003C35.863 36.5341 35.1624 36.9894 34.182 37.3711C33.4428 37.6594 32.3296 38.0004 30.2822 38.0935C28.0686 38.1953 27.4037 38.2156 21.7957 38.2156C16.1876 38.2156 15.5245 38.1953 13.3117 38.0935ZM13.1378 0.127176C10.9022 0.228984 9.37457 0.583464 8.04049 1.10258C6.65885 1.63867 5.48924 2.35788 4.32046 3.52481C3.15169 4.69174 2.43433 5.8632 1.89824 7.24483C1.37912 8.57976 1.02464 10.1065 0.92283 12.3421C0.819342 14.5812 0.795654 15.2971 0.795654 21C0.795654 26.7029 0.819342 27.4188 0.92283 29.6579C1.02464 31.8936 1.37912 33.4202 1.89824 34.7552C2.43433 36.136 3.15185 37.3088 4.32046 38.4752C5.48907 39.6416 6.65885 40.3598 8.04049 40.8974C9.37709 41.4165 10.9022 41.771 13.1378 41.8728C15.3781 41.9746 16.0927 42 21.7957 42C27.4986 42 28.2144 41.9763 30.4535 41.8728C32.6893 41.771 34.2159 41.4165 35.5508 40.8974C36.9316 40.3598 38.1021 39.6421 39.2708 38.4752C40.4396 37.3083 41.1555 36.136 41.6931 34.7552C42.2122 33.4202 42.5683 31.8935 42.6685 29.6579C42.7703 27.4171 42.794 26.7029 42.794 21C42.794 15.2971 42.7703 14.5812 42.6685 12.3421C42.5667 10.1064 42.2122 8.57892 41.6931 7.24483C41.1555 5.86404 40.4378 4.69358 39.2708 3.52481C38.1039 2.35603 36.9316 1.63867 35.5525 1.10258C34.2159 0.583464 32.6891 0.227304 30.4552 0.127176C28.2161 0.025368 27.5003 0 21.7973 0C16.0944 0 15.3781 0.023688 13.1378 0.127176Z" fill="url(#paint0_radial_82_1167)"/>
<path d="M14.7968 21C14.7968 17.1342 17.9298 13.9994 21.7957 13.9994C25.6615 13.9994 28.7962 17.1342 28.7962 21C28.7962 24.8658 25.6615 28.0006 21.7957 28.0006C17.9298 28.0006 14.7968 24.8658 14.7968 21ZM11.0124 21C11.0124 26.9556 15.8401 31.7832 21.7957 31.7832C27.7513 31.7832 32.5789 26.9556 32.5789 21C32.5789 15.0444 27.7513 10.2168 21.7957 10.2168C15.8401 10.2168 11.0124 15.0444 11.0124 21ZM30.4858 9.78919C30.4856 10.2876 30.6332 10.7749 30.9099 11.1894C31.1867 11.6039 31.5801 11.9271 32.0405 12.118C32.5009 12.3089 33.0076 12.359 33.4964 12.262C33.9853 12.1649 34.4344 11.9251 34.787 11.5728C35.1396 11.2205 35.3797 10.7716 35.4772 10.2828C35.5746 9.79402 35.5249 9.28731 35.3344 8.82677C35.1438 8.36622 34.821 7.97252 34.4067 7.69546C33.9924 7.41839 33.5052 7.2704 33.0068 7.2702H33.0058C32.3377 7.27051 31.6971 7.53597 31.2246 8.00828C30.7521 8.48059 30.4864 9.12112 30.4858 9.78919ZM13.3117 38.0935C11.2642 38.0003 10.1514 37.6592 9.41187 37.3711C8.43142 36.9894 7.73187 36.5348 6.99637 35.8003C6.26086 35.0658 5.80558 34.3669 5.42557 33.3865C5.13728 32.6473 4.79624 31.5341 4.70317 29.4867C4.60136 27.2731 4.58103 26.6082 4.58103 21.0002C4.58103 15.3922 4.60304 14.7291 4.70317 12.5136C4.79641 10.4662 5.13997 9.35525 5.42557 8.61386C5.80726 7.63342 6.26187 6.93386 6.99637 6.19836C7.73086 5.46286 8.42974 5.00758 9.41187 4.62756C10.1511 4.33927 11.2642 3.99823 13.3117 3.90516C15.5252 3.80335 16.1902 3.78302 21.7957 3.78302C27.4011 3.78302 28.0668 3.80503 30.2822 3.90516C32.3296 3.9984 33.4406 4.34196 34.182 4.62756C35.1624 5.00758 35.862 5.46386 36.5975 6.19836C37.333 6.93286 37.7866 7.63342 38.1683 8.61386C38.4566 9.35306 38.7976 10.4662 38.8907 12.5136C38.9925 14.7291 39.0128 15.3922 39.0128 21.0002C39.0128 26.6082 38.9925 27.2713 38.8907 29.4867C38.7974 31.5341 38.4547 32.6469 38.1683 33.3865C37.7866 34.3669 37.332 35.0665 36.5975 35.8003C35.863 36.5341 35.1624 36.9894 34.182 37.3711C33.4428 37.6594 32.3296 38.0004 30.2822 38.0935C28.0686 38.1953 27.4037 38.2156 21.7957 38.2156C16.1876 38.2156 15.5245 38.1953 13.3117 38.0935ZM13.1378 0.127176C10.9022 0.228984 9.37457 0.583464 8.04049 1.10258C6.65885 1.63867 5.48924 2.35788 4.32046 3.52481C3.15169 4.69174 2.43433 5.8632 1.89824 7.24483C1.37912 8.57976 1.02464 10.1065 0.92283 12.3421C0.819342 14.5812 0.795654 15.2971 0.795654 21C0.795654 26.7029 0.819342 27.4188 0.92283 29.6579C1.02464 31.8936 1.37912 33.4202 1.89824 34.7552C2.43433 36.136 3.15185 37.3088 4.32046 38.4752C5.48907 39.6416 6.65885 40.3598 8.04049 40.8974C9.37709 41.4165 10.9022 41.771 13.1378 41.8728C15.3781 41.9746 16.0927 42 21.7957 42C27.4986 42 28.2144 41.9763 30.4535 41.8728C32.6893 41.771 34.2159 41.4165 35.5508 40.8974C36.9316 40.3598 38.1021 39.6421 39.2708 38.4752C40.4396 37.3083 41.1555 36.136 41.6931 34.7552C42.2122 33.4202 42.5683 31.8935 42.6685 29.6579C42.7703 27.4171 42.794 26.7029 42.794 21C42.794 15.2971 42.7703 14.5812 42.6685 12.3421C42.5667 10.1064 42.2122 8.57892 41.6931 7.24483C41.1555 5.86404 40.4378 4.69358 39.2708 3.52481C38.1039 2.35603 36.9316 1.63867 35.5525 1.10258C34.2159 0.583464 32.6891 0.227304 30.4552 0.127176C28.2161 0.025368 27.5003 0 21.7973 0C16.0944 0 15.3781 0.023688 13.1378 0.127176Z" fill="url(#paint1_radial_82_1167)"/>
</g>
<defs>
<radialGradient id="paint0_radial_82_1167" cx="0" cy="0" r="1" gradientUnits="userSpaceOnUse" gradientTransform="translate(6.37561 42.1984) scale(54.8275 54.8275)">
<stop offset="0.09" stop-color="#FA8F21"/>
<stop offset="0.78" stop-color="#D82D7E"/>
</radialGradient>
<radialGradient id="paint1_radial_82_1167" cx="0" cy="0" r="1" gradientUnits="userSpaceOnUse" gradientTransform="translate(26.2668 44.08) scale(43.2116)">
<stop offset="0.64" stop-color="#8C3AAA" stop-opacity="0"/>
<stop offset="1" stop-color="#8C3AAA"/>
</radialGradient>
<clipPath id="clip0_82_1167">
<rect width="42" height="42" fill="white" transform="translate(0.794922)"/>
</clipPath>
</defs>
</svg>
