<svg width="43" height="42" viewBox="0 0 43 42" fill="none" xmlns="http://www.w3.org/2000/svg">
<g opacity="0.4" clip-path="url(#clip0_82_1170)">
<path d="M21.7949 42C33.3929 42 42.7949 32.598 42.7949 21C42.7949 9.40204 33.3929 0 21.7949 0C10.197 0 0.794922 9.40204 0.794922 21C0.794922 32.598 10.197 42 21.7949 42Z" fill="#34AADF"/>
<path d="M9.53486 20.8178C9.53486 20.8178 20.0349 16.5086 23.6764 14.9912C25.0724 14.3843 29.8065 12.4421 29.8065 12.4421C29.8065 12.4421 31.9915 11.5924 31.8094 13.656C31.7487 14.5057 31.2631 17.4796 30.7776 20.6964C30.0493 25.2485 29.2602 30.2253 29.2602 30.2253C29.2602 30.2253 29.1389 31.6213 28.1071 31.8641C27.0753 32.1068 25.3758 31.0144 25.0724 30.7716C24.8296 30.5895 20.5204 27.8583 18.9424 26.523C18.5175 26.1589 18.032 25.4306 19.003 24.5808C21.188 22.5779 23.7978 20.0895 25.3758 18.5115C26.1042 17.7831 26.8325 16.0837 23.7978 18.1473C19.4886 21.1213 15.2401 23.9132 15.2401 23.9132C15.2401 23.9132 14.2689 24.5201 12.4481 23.9739C10.6273 23.4277 8.503 22.6993 8.503 22.6993C8.503 22.6993 7.04644 21.7889 9.53486 20.8178Z" fill="white"/>
</g>
<defs>
<clipPath id="clip0_82_1170">
<rect width="42" height="42" fill="white" transform="translate(0.794922)"/>
</clipPath>
</defs>
</svg>
