<svg width="60" height="42" viewBox="0 0 60 42" fill="none" xmlns="http://www.w3.org/2000/svg">
<path d="M24.7643 41.9455C13.3766 41.7358 9.4872 41.5472 7.09651 41.0546C5.47905 40.7274 4.07348 40.0007 3.04288 38.9468C2.24635 38.1492 1.6129 36.9322 1.12145 35.2438C0.69989 33.8371 0.535703 32.6667 0.301626 29.8079C-0.0567004 23.3558 -0.142122 18.0807 0.301626 12.1866C0.667718 8.93175 0.845216 5.06782 3.27695 2.81358C4.42515 1.75857 5.76083 1.07964 7.2607 0.798969C9.60369 0.354112 19.5858 0.00244141 29.9196 0.00244141C40.23 0.00244141 50.2343 0.354112 52.5795 0.798969C54.4533 1.15064 56.2105 2.20454 57.2422 3.56351C59.4609 7.05359 59.4998 11.3934 59.725 14.7881C59.8182 16.4056 59.8182 25.59 59.725 27.2075C59.3744 32.5724 59.0926 34.4705 58.2961 36.4386C57.8036 37.6811 57.3831 38.3367 56.6554 39.0633C55.514 40.1815 54.0589 40.9253 52.4841 41.1955C42.6296 41.9366 34.2616 42.0974 24.7643 41.9455ZM39.8551 20.3882C34.3726 17.4584 29.123 14.7415 23.757 11.9293V28.754C29.4037 25.6843 35.3566 22.8721 39.8784 20.3649L39.8551 20.3882Z" fill="#CD201F"/>
</svg>
